<svg xmlns="http://www.w3.org/2000/svg" fill="none" viewBox="0 0 279 318"><path fill="#8F001A" d="M68.7 37H34.5v18H.8v262.8h278.1V55h-33.7V37H211C196.4 13.4 171.3.5 139.9.5c-31.5 0-56.5 13-71.2 36.5Zm8.7 14.7 2.1-3.8c14.8-27 41-32.7 60.4-32.7s45.6 5.7 60.4 32.7l2.1 3.8h28.1v18h33.7v233.4H15.6V69.7h33.7v-18h28.1Z"/><path fill="#8F001A" d="M31 263.7h217.6v8.1H31v-8.1Zm-6.3 14.1h230.4v8.1H24.7v-8.1ZM137.3 86.2 28.5 125.1l5 13.8s101.5-36.3 106.3-38c4.8 1.7 106.3 38 106.3 38l5-13.8-111.3-39.8m93.8 155.6-2-82.4c.7.3 1.4.5 2.2.5 2.5 0 4.6-2 4.6-4.6 0-1.2-.5-2.4-1.3-3.2h3.7v-8.1H39v8.1h3.7c-.8.8-1.3 2-1.3 3.2 0 2.5 2.1 4.6 4.6 4.6.7 0 1.4-.2 2.1-.5l-2 82.3h-7.6v13.5h202.9v-13.5m-153.2.1H64.9l-2-82.3c.6.3 1.3.5 2.1.5 2.5 0 4.6-2 4.6-4.6 0-1.2-.5-2.4-1.3-3.2h16.5c-.8.8-1.3 2-1.3 3.2 0 2.5 2.1 4.6 4.6 4.6.8 0 1.5-.2 2.1-.5l-2 82.3Zm42.2 0h-23.3l-2-82.3c.6.3 1.3.5 2.1.5 2.6 0 4.6-2 4.6-4.6 0-1.2-.5-2.4-1.3-3.2h16.6c-.8.8-1.3 2-1.3 3.2 0 2.5 2.1 4.6 4.6 4.6.7 0 1.4-.2 2.1-.5l-2.1 82.3Zm42.2 0h-23.3l-2-82.3c.6.3 1.3.4 2 .4 2.5 0 4.6-2 4.6-4.6 0-1.2-.5-2.4-1.3-3.2h16.6c-.8.8-1.3 2-1.3 3.2 0 2.5 2.1 4.6 4.6 4.6.8 0 1.5-.2 2.1-.5l-2 82.4Zm42.1 0h-23.3l-2-82.3c.6.3 1.3.5 2 .5 2.6 0 4.6-2 4.6-4.6 0-1.2-.5-2.4-1.3-3.2h16.6c-.8.8-1.3 2-1.3 3.2 0 2.5 2.1 4.6 4.6 4.6.7 0 1.4-.2 2-.5l-1.9 82.3Z"/></svg>
